# xmcd
#
# Track frame offsets: 
#        150
#        16720
#        33515
#        46140
#        58141
#        76641
#        95004
#        113390
#        131380
#        145933
#        161073
#        180388
#        200013
#        214881
#        229028
#        250237
#        271953
#
# Disc length: 3849 seconds
#
# Revision: 2
# Processed by: cddbd v1.5.2PL0 Copyright (c) Steve Scherf et al.
# Submitted via: ExactAudioCopyFreeDBPlugin 1.0
#
DISCID=de0f0711
DTITLE=Prinz Pi - Das Prinz IP Prinz PI Volume 1
DYEAR=2007
DGENRE=Rap
TTITLE0=Namenstag
TTITLE1=Extravaganz
TTITLE2=Tief
TTITLE3=Krokodil
TTITLE4=Ufos
TTITLE5=Das Mädchen vom Werbeplakat
TTITLE6=Giftige Worte
TTITLE7=Fluch der Besten
TTITLE8=Was für ein Tag
TTITLE9=Zauberspiegel
TTITLE10=Wiederbelebt
TTITLE11=Goldene Tage
TTITLE12=Dunkle Sonne
TTITLE13=Von hier
TTITLE14=333SDK - 3x3
TTITLE15=Boba Fettt - Nach Oben
TTITLE16=ZDWA RMX
EXTD=
EXTT0=
EXTT1=
EXTT2=
EXTT3=
EXTT4=
EXTT5=
EXTT6=
EXTT7=
EXTT8=
EXTT9=
EXTT10=
EXTT11=
EXTT12=
EXTT13=
EXTT14=
EXTT15=
EXTT16=
PLAYORDER=
